<svg id="Layer_1" data-name="Layer 1" xmlns="http://www.w3.org/2000/svg" viewBox="0 0 100 100"><defs><style>.cls-1{fill:#78a9db;}.cls-2{fill:#a9cced;}.cls-3{fill:#6799d1;}.cls-4{fill:#e8f3fc;}.cls-5{fill:#2956a3;}.cls-6{fill:#f59d12;}.cls-7{fill:#ee751a;}.cls-8{fill:#f4c3bf;}.cls-9{fill:#fad4d0;}.cls-10{fill:#243878;}</style></defs><title>icon</title><circle class="cls-1" cx="50.32" cy="49.98" r="28.75"/><path class="cls-2" d="M23.55,50A28.75,28.75,0,0,1,51.31,21.25l-1,0a28.75,28.75,0,0,0,0,57.5c.33,0,.66,0,1,0A28.74,28.74,0,0,1,23.55,50Z"/><path class="cls-3" d="M50.32,21.23c-.67,0-1.33,0-2,.07a28.74,28.74,0,0,1,0,57.35c.65,0,1.31.08,2,.08a28.75,28.75,0,0,0,0-57.5Z"/><path class="cls-4" d="M50.32,78.73l-1.94-1-1.86-1.16-1.79-1.29L43,73.85l-1.59-1.54c-.49-.55-1-1.09-1.49-1.65s-.93-1.15-1.37-1.75-.86-1.22-1.25-1.86-.78-1.27-1.13-1.93-.68-1.33-1-2a34.87,34.87,0,0,1-1.54-4.22,33.06,33.06,0,0,1-.92-4.4c-.08-.75-.18-1.5-.23-2.25s-.08-1.46-.08-2.28l.08-2.18.25-2.28.39-2.21c.16-.74.35-1.46.54-2.19s.47-1.42.7-2.13.56-1.39.84-2.09.64-1.35,1-2,.76-1.3,1.13-1.94.83-1.24,1.24-1.86S39.5,29.88,40,29.3s1-1.1,1.49-1.65,1-1,1.58-1.55l1.7-1.42,1.78-1.29,1.87-1.16,1.94-1h0l1.94,1,1.87,1.16,1.78,1.29,1.7,1.42,1.59,1.54c.49.55,1,1.08,1.49,1.65s.93,1.15,1.37,1.75.86,1.22,1.25,1.85.78,1.28,1.13,1.94.69,1.33,1,2A35.5,35.5,0,0,1,67,41.07a33.54,33.54,0,0,1,.92,4.41c.08.75.18,1.49.23,2.24s.08,1.47.08,2.29l-.08,2.17-.25,2.28-.39,2.22c-.16.73-.35,1.46-.54,2.19s-.47,1.42-.7,2.13-.56,1.39-.84,2.08-.64,1.35-1,2-.75,1.29-1.13,1.94-.83,1.24-1.24,1.85-.91,1.18-1.37,1.76-1,1.11-1.49,1.66-1,1-1.58,1.54l-1.7,1.42-1.78,1.3-1.87,1.16Zm0,0,1.74-1.31L53.72,76l1.57-1.46L56.76,73l1.38-1.63c.43-.57.87-1.12,1.28-1.7l1.17-1.77c.35-.61.72-1.21,1.06-1.83.65-1.24,1.24-2.52,1.77-3.82.23-.66.49-1.31.71-2s.4-1.34.57-2l.46-2,.33-2.07.2-2,.06-2.17,0-2.06c0-.69-.13-1.38-.19-2.08s-.22-1.38-.33-2.07-.32-1.36-.45-2a35,35,0,0,0-1.28-4c-.53-1.3-1.13-2.58-1.78-3.82-.34-.62-.72-1.22-1.07-1.83l-1.18-1.76c-.41-.58-.85-1.13-1.28-1.7L56.76,27,55.28,25.4l-1.57-1.47-1.66-1.39-1.73-1.31h0l-1.74,1.31-1.66,1.38-1.57,1.47L43.88,27,42.5,28.57c-.43.57-.87,1.13-1.28,1.71l-1.17,1.77c-.35.61-.72,1.21-1.06,1.83a41.29,41.29,0,0,0-1.77,3.82c-.23.66-.49,1.31-.7,2s-.41,1.34-.58,2l-.46,2-.33,2.07-.2,2L34.89,50l0,2c0,.7.13,1.39.19,2.09s.22,1.37.33,2.06.31,1.36.45,2.05a33.12,33.12,0,0,0,1.29,4c.52,1.3,1.12,2.57,1.77,3.82.34.62.72,1.21,1.07,1.83l1.18,1.76c.41.57.85,1.13,1.28,1.7L43.88,73l1.48,1.56L46.93,76l1.65,1.38Z"/><path class="cls-4" d="M30,70.31l.32-.4c.22-.25.5-.66.94-1.1a23.24,23.24,0,0,1,3.93-3.44,22.52,22.52,0,0,1,3-1.8A24.11,24.11,0,0,1,41.84,62,26.83,26.83,0,0,1,46,61a33,33,0,0,1,4.4-.37,34,34,0,0,1,4.34.37,28,28,0,0,1,4.11,1,24.11,24.11,0,0,1,3.64,1.53,22.52,22.52,0,0,1,3,1.8,23.24,23.24,0,0,1,3.93,3.44c.44.44.72.85.94,1.1l.32.4s-.57-.44-1.58-1.14c-.5-.36-1.13-.76-1.85-1.21s-1.56-.91-2.48-1.38-1.95-.92-3-1.35a35.26,35.26,0,0,0-3.51-1.13,38.36,38.36,0,0,0-3.84-.74,31.39,31.39,0,0,0-4.06-.25,31.82,31.82,0,0,0-4,.25,38.36,38.36,0,0,0-3.84.74,35.26,35.26,0,0,0-3.51,1.13c-1.09.43-2.11.88-3,1.35s-1.75.94-2.48,1.38-1.35.85-1.84,1.21C30.56,69.87,30,70.31,30,70.31Z"/><path class="cls-4" d="M70.65,29.65l-.32.4c-.22.25-.5.66-.94,1.1a23.26,23.26,0,0,1-3.93,3.43,22.53,22.53,0,0,1-3,1.81,25.18,25.18,0,0,1-3.64,1.53,28,28,0,0,1-4.11,1,31.47,31.47,0,0,1-4.4.36A32.29,32.29,0,0,1,46,38.93a28,28,0,0,1-4.11-1,25.18,25.18,0,0,1-3.64-1.53,22.53,22.53,0,0,1-3-1.81,23.26,23.26,0,0,1-3.93-3.43c-.44-.44-.72-.85-.94-1.1l-.32-.4s.57.43,1.58,1.14c.5.36,1.13.76,1.85,1.21s1.56.9,2.48,1.38,2,.92,3,1.35,2.28.77,3.51,1.13a38.36,38.36,0,0,0,3.84.73,29.69,29.69,0,0,0,4.06.26,30.07,30.07,0,0,0,4-.26,38.36,38.36,0,0,0,3.84-.73c1.23-.36,2.42-.69,3.51-1.13s2.11-.88,3-1.35,1.75-.94,2.48-1.38,1.35-.85,1.84-1.21C70.08,30.08,70.65,29.65,70.65,29.65Z"/><path class="cls-4" d="M50.32,78.73s-.39-3.6-.68-9c-.07-1.34-.16-2.8-.21-4.35s-.13-3.17-.17-4.85c-.09-3.37-.14-7-.15-10.56,0-1.8,0-3.6,0-5.36s0-3.51.09-5.2c.08-3.37.22-6.51.38-9.21.29-5.39.72-9,.72-9s.43,3.59.72,9c.16,2.7.3,5.84.38,9.21,0,1.69.09,3.43.09,5.2s.05,3.56,0,5.36c0,3.59-.06,7.19-.15,10.56,0,1.68-.12,3.31-.17,4.85s-.14,3-.21,4.35C50.71,75.13,50.32,78.73,50.32,78.73Z"/><path class="cls-4" d="M79.07,50s-3.59.39-9,.68c-1.35.06-2.81.16-4.36.21s-3.17.13-4.85.17c-3.37.09-7,.14-10.56.15-1.8,0-3.59,0-5.36,0s-3.51-.05-5.2-.09c-3.37-.08-6.51-.22-9.21-.38-5.39-.29-9-.72-9-.72s3.59-.43,9-.73c2.7-.15,5.84-.3,9.21-.37,1.69,0,3.43-.09,5.2-.09s3.56,0,5.36,0c3.59,0,7.19.07,10.56.16,1.68,0,3.31.12,4.85.17s3,.14,4.36.21C75.48,49.59,79.07,50,79.07,50Z"/><path class="cls-5" d="M62.92,16.1l1.73.47c.54.15,1.21.31,2,.59s1.65.51,2.56.93a27.62,27.62,0,0,1,2.92,1.36,27.32,27.32,0,0,1,3.09,1.89,24.94,24.94,0,0,1,2.94,2.56l.7.72.63.79a16,16,0,0,1,1.2,1.64c.34.58.75,1.13,1,1.74l.89,1.79a33,33,0,0,1,1.32,3.66,34.47,34.47,0,0,1,.88,3.5c.24,1.12.38,2.19.55,3.17s.21,1.89.31,2.69.11,1.51.16,2.08c.08,1.15.12,1.81.12,1.81a1.21,1.21,0,0,1-1.13,1.3,1.22,1.22,0,0,1-1.31-1.13v-.08s0-.64-.07-1.76c0-.56,0-1.25-.1-2s-.14-1.66-.22-2.61-.23-2-.43-3-.4-2.21-.74-3.34a29.52,29.52,0,0,0-1.13-3.45L80,29.67c-.25-.57-.62-1.08-.92-1.63a12.27,12.27,0,0,0-1.06-1.53l-.55-.75-.63-.67a22.52,22.52,0,0,0-2.64-2.46,29.45,29.45,0,0,0-5.6-3.24c-.86-.43-1.7-.66-2.42-1s-1.39-.47-1.93-.64l-1.71-.52a.61.61,0,0,1,.34-1.17Z"/><path class="cls-6" d="M84.73,29.3S80,34.41,80,38.77s4.73,6.32,4.73,6.32,4.74-2,4.74-6.32S84.73,29.3,84.73,29.3Z"/><path class="cls-7" d="M84.73,29.3a39.62,39.62,0,0,1,1.75,9.15,17.8,17.8,0,0,1-1.75,6.64s4.74-2,4.74-6.32S84.73,29.3,84.73,29.3Z"/><path class="cls-6" d="M70.21,15.9s-.44,7,2.32,10.33,7.66,1.9,7.66,1.9,2.43-4.51-.32-7.89S70.21,15.9,70.21,15.9Z"/><path class="cls-7" d="M70.21,15.9a30.34,30.34,0,0,1,6.72,5.71,20.24,20.24,0,0,1,3.26,6.52s2.43-4.51-.32-7.89S70.21,15.9,70.21,15.9Z"/><path class="cls-6" d="M51.3,12.73s3.38,6.1,7.52,7.46,7.48-2.52,7.48-2.52-.38-5.11-4.52-6.48S51.3,12.73,51.3,12.73Z"/><path class="cls-7" d="M51.3,12.73s5.71-.25,9.38,1.07a19.05,19.05,0,0,1,5.62,3.87s-.38-5.11-4.52-6.48S51.3,12.73,51.3,12.73Z"/><path class="cls-5" d="M37.72,83.86,36,83.39c-.55-.15-1.21-.31-2-.59s-1.65-.51-2.56-.93a29.77,29.77,0,0,1-2.92-1.36,28.85,28.85,0,0,1-3.09-1.89,23.42,23.42,0,0,1-2.94-2.57l-.7-.71-.63-.8A14.87,14.87,0,0,1,20,72.91c-.34-.58-.75-1.13-1-1.74l-.9-1.8a34.07,34.07,0,0,1-1.31-3.65c-.4-1.2-.63-2.38-.89-3.5s-.37-2.19-.54-3.17-.21-1.89-.31-2.7-.11-1.5-.16-2.07c-.08-1.16-.13-1.81-.13-1.81a1.23,1.23,0,1,1,2.45-.17v.08s0,.64.07,1.76c0,.56,0,1.25.1,2s.14,1.65.22,2.61.23,2,.43,3,.4,2.21.74,3.34a30.15,30.15,0,0,0,1.13,3.45c.25.55.52,1.12.78,1.68s.62,1.08.92,1.63a13.36,13.36,0,0,0,1.05,1.53l.56.75.63.67a21.75,21.75,0,0,0,2.64,2.46,27.11,27.11,0,0,0,2.86,1.85A23.45,23.45,0,0,0,32,80.56c.86.43,1.7.67,2.42,1s1.38.48,1.93.65l1.71.52a.61.61,0,0,1-.34,1.17Z"/><path class="cls-6" d="M15.91,70.66s4.73-5.12,4.73-9.47-4.73-6.32-4.73-6.32-4.74,2-4.74,6.32S15.91,70.66,15.91,70.66Z"/><path class="cls-7" d="M15.91,70.66a39.62,39.62,0,0,1-1.75-9.15,17.8,17.8,0,0,1,1.75-6.64s-4.74,2-4.74,6.32S15.91,70.66,15.91,70.66Z"/><path class="cls-6" d="M30.43,84.06s.44-7-2.32-10.33-7.66-1.9-7.66-1.9-2.44,4.51.32,7.89S30.43,84.06,30.43,84.06Z"/><path class="cls-7" d="M30.43,84.06a30.1,30.1,0,0,1-6.72-5.71,20.24,20.24,0,0,1-3.26-6.52s-2.44,4.51.32,7.89S30.43,84.06,30.43,84.06Z"/><path class="cls-6" d="M49.34,87.23s-3.38-6.1-7.52-7.46-7.48,2.52-7.48,2.52.38,5.11,4.52,6.47S49.34,87.23,49.34,87.23Z"/><path class="cls-7" d="M49.34,87.23s-5.71.25-9.39-1.08a19,19,0,0,1-5.61-3.86s.38,5.11,4.52,6.47S49.34,87.23,49.34,87.23Z"/><circle class="cls-5" cx="27.07" cy="26.73" r="15.9"/><path class="cls-2" d="M27.07,41.41a15.84,15.84,0,0,0,11.44-4.86V35.13a3.53,3.53,0,0,0-2.63-3.4L31.8,30.64H22.34l-4.07,1.09a3.53,3.53,0,0,0-2.63,3.4v1.42A15.83,15.83,0,0,0,27.07,41.41Z"/><path class="cls-3" d="M31.4,32.54,33.31,31l-1.51-.4H22.34l-1.5.4,1.91,1.5A7,7,0,0,0,31.4,32.54Z"/><path class="cls-8" d="M29.87,28.16c0-.19-.06-1.26-.08-1.44H24.36c0,.18-.05,1.25-.08,1.44a3.55,3.55,0,0,1-1.94,2.48l1.49,1.15a5.33,5.33,0,0,0,6.49,0l1.49-1.15A3.55,3.55,0,0,1,29.87,28.16Z"/><path class="cls-3" d="M20.22,36.25a.39.39,0,0,0-.39.38v3c.26.12.51.25.77.36V36.63A.38.38,0,0,0,20.22,36.25Z"/><path class="cls-3" d="M33.93,36.25a.38.38,0,0,0-.38.38V40c.26-.11.51-.24.77-.37v-3A.39.39,0,0,0,33.93,36.25Z"/><path class="cls-9" d="M27.07,17.09c-2.66,0-4.82,2.71-4.82,6.05s2.16,6.05,4.82,6.05,4.83-2.71,4.83-6.05S29.74,17.09,27.07,17.09Z"/><path class="cls-1" d="M22.32,22.28s-1.17-1.51-.43-4.38,3-2.41,3-2.41a3.45,3.45,0,0,1,2.46-.78c2.13,0,4,.51,4.81,2.56s-.28,5-.28,5a6.35,6.35,0,0,0-7.58-3.07A5.47,5.47,0,0,1,22.32,22.28Z"/><path class="cls-9" d="M32.17,21.65c-.51-.11-1.2.56-1.37,1.35s.1,1.53.62,1.63,1.14-.42,1.31-1.21S32.68,21.76,32.17,21.65Z"/><path class="cls-9" d="M22,21.65c.51-.11,1.19.56,1.37,1.35s-.1,1.53-.62,1.63-1.14-.42-1.31-1.21S21.47,21.76,22,21.65Z"/><circle class="cls-5" cx="73.56" cy="73.22" r="15.9"/><path class="cls-6" d="M73.56,87.9A15.81,15.81,0,0,0,85,83V81.62a3.51,3.51,0,0,0-2.62-3.4l-4.08-1.09H68.82l-4.06,1.09a3.52,3.52,0,0,0-2.63,3.4V83A15.83,15.83,0,0,0,73.56,87.9Z"/><path class="cls-8" d="M76.36,74.65c0-.19-.06-1.26-.08-1.44H70.85c0,.18,0,1.25-.09,1.44a3.54,3.54,0,0,1-1.93,2.48l4.73,1.2,4.74-1.2A3.55,3.55,0,0,1,76.36,74.65Z"/><path class="cls-7" d="M66.7,82.74a.38.38,0,0,0-.38.38v3c.25.12.51.25.77.36V83.12A.38.38,0,0,0,66.7,82.74Z"/><path class="cls-7" d="M80.42,82.74a.38.38,0,0,0-.38.38v3.37c.26-.11.51-.24.76-.37v-3A.38.38,0,0,0,80.42,82.74Z"/><path class="cls-9" d="M73.56,63.58c-2.66,0-4.82,2.71-4.82,6s2.16,6.05,4.82,6.05,4.83-2.71,4.83-6.05S76.23,63.58,73.56,63.58Z"/><path class="cls-1" d="M68.81,68.77s-1.18-1.51-.43-4.38,3-2.41,3-2.41a3.45,3.45,0,0,1,2.46-.78c2.13,0,4,.51,4.81,2.56s-.28,5-.28,5a5.26,5.26,0,0,0-3.09-3.36s-.91,1-3.68,1A2.52,2.52,0,0,0,68.81,68.77Z"/><path class="cls-9" d="M78.66,68.14c-.51-.11-1.2.56-1.37,1.35s.1,1.53.62,1.63,1.14-.42,1.31-1.21S79.17,68.24,78.66,68.14Z"/><path class="cls-9" d="M68.47,68.14c.51-.11,1.19.56,1.37,1.35s-.1,1.53-.62,1.63-1.14-.42-1.31-1.21S68,68.24,68.47,68.14Z"/><path class="cls-7" d="M70.26,75.88a9.17,9.17,0,0,0-1.43,1.25c-.09,1,2.49,3.86,2.49,3.86a18.17,18.17,0,0,1,2.24-2.66A13.83,13.83,0,0,1,70.26,75.88Z"/><path class="cls-7" d="M76.87,75.88a9.4,9.4,0,0,1,1.42,1.25c.1,1-2.48,3.86-2.48,3.86a17.89,17.89,0,0,0-2.25-2.66A13.77,13.77,0,0,0,76.87,75.88Z"/><path class="cls-10" d="M27.07,10.83A15.91,15.91,0,1,0,43,26.73,15.9,15.9,0,0,0,27.07,10.83Zm0,30A14.07,14.07,0,1,1,41.14,26.73,14.08,14.08,0,0,1,27.07,40.8Z"/><path class="cls-10" d="M73.56,57.32a15.91,15.91,0,1,0,15.91,15.9A15.9,15.9,0,0,0,73.56,57.32Zm0,30A14.07,14.07,0,1,1,87.63,73.22,14.09,14.09,0,0,1,73.56,87.29Z"/></svg>