<svg id="Layer_1" data-name="Layer 1" xmlns="http://www.w3.org/2000/svg" viewBox="0 0 100 100"><defs><style>.cls-1{fill:#6799d1;}.cls-2{fill:#a9cced;}.cls-3{fill:#2956a3;}.cls-4{fill:#f59d12;}.cls-5{fill:#ee751a;}.cls-6{fill:#e8f3fc;}</style></defs><title>icon</title><polygon class="cls-1" points="92.17 44.05 87.06 41.49 87.06 92.55 92.17 92.55 92.17 44.05"/><polygon class="cls-1" points="81.96 49.15 76.85 46.6 76.85 92.55 81.96 92.55 81.96 49.15"/><polygon class="cls-1" points="71.74 54.26 66.64 51.71 66.64 92.55 71.74 92.55 71.74 54.26"/><polygon class="cls-1" points="61.53 59.37 56.42 56.81 56.42 92.55 61.53 92.55 61.53 59.37"/><polygon class="cls-1" points="51.31 64.47 46.21 61.92 46.21 92.55 51.31 92.55 51.31 64.47"/><polygon class="cls-1" points="41.1 69.58 35.99 67.03 35.99 92.55 41.1 92.55 41.1 69.58"/><polygon class="cls-1" points="30.89 74.69 25.78 72.13 25.78 92.55 30.89 92.55 30.89 74.69"/><polygon class="cls-2" points="87.06 41.49 81.96 44.05 81.96 92.55 87.06 92.55 87.06 41.49"/><polygon class="cls-2" points="76.85 46.6 71.74 49.15 71.74 92.55 76.85 92.55 76.85 46.6"/><polygon class="cls-2" points="66.64 51.71 61.53 54.26 61.53 92.55 66.64 92.55 66.64 51.71"/><polygon class="cls-2" points="56.42 56.81 51.31 59.37 51.31 92.55 56.42 92.55 56.42 56.81"/><polygon class="cls-2" points="46.21 61.92 41.1 64.47 41.1 92.55 46.21 92.55 46.21 61.92"/><polygon class="cls-2" points="35.99 67.03 30.89 69.58 30.89 92.55 35.99 92.55 35.99 67.03"/><polygon class="cls-2" points="25.78 72.13 20.67 74.69 20.67 92.55 25.78 92.55 25.78 72.13"/><polygon class="cls-3" points="13.02 90 13.02 13.4 10.47 10.85 10.47 92.55 92.17 92.55 89.62 90 13.02 90"/><polygon class="cls-3" points="16.59 42.77 11.74 42.77 11.74 40.22 16.59 40.22 17.87 41.49 16.59 42.77"/><polygon class="cls-3" points="16.59 32.56 11.74 32.56 11.74 30 16.59 30 17.87 31.28 16.59 32.56"/><polygon class="cls-3" points="16.59 22.34 11.74 22.34 11.74 19.79 16.59 19.79 17.87 21.07 16.59 22.34"/><polygon class="cls-3" points="16.59 83.63 11.74 83.63 11.74 81.07 16.59 81.07 17.87 82.35 16.59 83.63"/><polygon class="cls-3" points="16.59 73.41 11.74 73.41 11.74 70.86 16.59 70.86 17.87 72.13 16.59 73.41"/><polygon class="cls-3" points="16.59 63.2 11.74 63.2 11.74 60.64 16.59 60.64 17.87 61.92 16.59 63.2"/><polygon class="cls-3" points="16.59 52.98 11.74 52.98 11.74 50.43 16.59 50.43 17.87 51.71 16.59 52.98"/><polygon class="cls-3" points="42.33 86.3 42.33 91.15 39.77 91.15 39.77 86.3 41.05 85.02 42.33 86.3"/><polygon class="cls-3" points="32.11 86.3 32.11 91.15 29.56 91.15 29.56 86.3 30.84 85.02 32.11 86.3"/><polygon class="cls-3" points="21.9 86.3 21.9 91.15 19.34 91.15 19.34 86.3 20.62 85.02 21.9 86.3"/><polygon class="cls-3" points="83.18 86.3 83.18 91.15 80.63 91.15 80.63 86.3 81.9 85.02 83.18 86.3"/><polygon class="cls-3" points="72.97 86.3 72.97 91.15 70.41 91.15 70.41 86.3 71.69 85.02 72.97 86.3"/><polygon class="cls-3" points="62.75 86.3 62.75 91.15 60.2 91.15 60.2 86.3 61.48 85.02 62.75 86.3"/><polygon class="cls-3" points="52.54 86.3 52.54 91.15 49.99 91.15 49.99 86.3 51.26 85.02 52.54 86.3"/><polygon class="cls-4" points="92.17 14.55 68.48 11.23 73.66 18.09 20.67 68.34 92.17 14.55 92.17 14.55"/><polygon class="cls-5" points="20.67 68.34 20.67 68.34 83.67 31.38 88.85 38.24 92.17 14.55 20.67 68.34"/><path class="cls-1" d="M52.6,41.49l-7.66-6.38H25.79a1.28,1.28,0,0,1-1.28-1.28V12.13a1.28,1.28,0,0,1,1.28-1.28H51.32a1.28,1.28,0,0,1,1.28,1.28Z"/><path class="cls-6" d="M48.13,21.26H39.19a.83.83,0,0,1,0-1.66h8.94a.83.83,0,0,1,0,1.66Z"/><path class="cls-6" d="M34.09,21.26H29a.83.83,0,1,1,0-1.66h5.11a.83.83,0,0,1,0,1.66Z"/><path class="cls-6" d="M48.13,26.36H29a.83.83,0,1,1,0-1.66H48.13a.83.83,0,0,1,0,1.66Z"/><path class="cls-6" d="M41.75,31.47H29a.83.83,0,1,1,0-1.66H41.75a.83.83,0,0,1,0,1.66Z"/><path class="cls-6" d="M48.13,16.15H43a.83.83,0,0,1,0-1.66h5.11a.83.83,0,0,1,0,1.66Z"/><path class="cls-6" d="M37.92,16.15H29a.83.83,0,1,1,0-1.66h8.94a.83.83,0,0,1,0,1.66Z"/></svg>