<svg id="Layer_1" data-name="Layer 1" xmlns="http://www.w3.org/2000/svg" viewBox="0 0 100 100"><defs><style>.cls-1{fill:#78a9db;}.cls-2{fill:#a9cced;}.cls-3{fill:#6799d1;}.cls-4{fill:#2956a3;}.cls-5{fill:#243878;}.cls-6{fill:#ee751a;}.cls-7{fill:#f59d12;}.cls-8{fill:#e8f3fc;}</style></defs><title>icon</title><rect class="cls-1" x="12.21" y="11.61" width="60.15" height="72.18" rx="1"/><path class="cls-2" d="M76.17,16.42H27l-10,10V87.6a1,1,0,0,0,1,1H76.17a1,1,0,0,0,1-1V17.42A1,1,0,0,0,76.17,16.42Z"/><path class="cls-3" d="M17,28.45H27.85a1.2,1.2,0,0,0,1.2-1.2V16.42Z"/><path class="cls-4" d="M56.72,29.36H37.47a.91.91,0,0,1,0-1.81H56.72a.91.91,0,0,1,0,1.81Z"/><path class="cls-4" d="M59.21,35.37H49.5a.9.9,0,0,1,0-1.8h9.71a.9.9,0,0,1,0,1.8Z"/><path class="cls-4" d="M44.69,35.37h-18a.9.9,0,1,1,0-1.8h18a.9.9,0,0,1,0,1.8Z"/><path class="cls-4" d="M56.07,41.39H42.29a.91.91,0,1,1,0-1.81H56.07a.91.91,0,0,1,0,1.81Z"/><path class="cls-4" d="M37.47,41.39H26.64a.91.91,0,0,1,0-1.81H37.47a.91.91,0,1,1,0,1.81Z"/><path class="cls-4" d="M54.31,47.4h-6a.9.9,0,0,1,0-1.8h6a.9.9,0,0,1,0,1.8Z"/><path class="cls-4" d="M43.49,47.4H26.64a.9.9,0,0,1,0-1.8H43.49a.9.9,0,0,1,0,1.8Z"/><path class="cls-4" d="M55.06,53.42h-14a.91.91,0,0,1,0-1.81h14a.91.91,0,1,1,0,1.81Z"/><path class="cls-4" d="M36.27,53.42H26.64a.91.91,0,0,1,0-1.81h9.63a.91.91,0,0,1,0,1.81Z"/><path class="cls-4" d="M57.46,59.43H47.1a.9.9,0,1,1,0-1.8H57.46a.9.9,0,1,1,0,1.8Z"/><path class="cls-4" d="M42.28,59.43H26.64a.9.9,0,0,1,0-1.8H42.28a.9.9,0,1,1,0,1.8Z"/><path class="cls-4" d="M61.52,65.45H42.29a.91.91,0,1,1,0-1.81H61.52a.91.91,0,1,1,0,1.81Z"/><path class="cls-4" d="M37.47,65.45H26.64a.91.91,0,0,1,0-1.81H37.47a.91.91,0,1,1,0,1.81Z"/><path class="cls-4" d="M51.91,71.46a.9.9,0,1,1,0-1.8h9.61a.91.91,0,1,1,0,1.81Z"/><polygon class="cls-4" points="81.97 77.78 73.55 72.96 65.13 77.78 65.13 53.72 81.97 53.72 81.97 77.78"/><polygon class="cls-5" points="73.55 72.96 65.13 77.78 65.13 53.72 73.55 53.72 73.55 72.96"/><circle class="cls-6" cx="73.55" cy="47.7" r="15.64"/><circle class="cls-7" cx="73.55" cy="47.7" r="12.03"/><path class="cls-8" d="M74.43,39.75l1.1,1.66a1.06,1.06,0,0,0,1.08.45l2-.4a1,1,0,0,1,1.23,1.24l-.39,1.95a1,1,0,0,0,.45,1.08l1.66,1.1a1,1,0,0,1,0,1.74l-1.66,1.11a1,1,0,0,0-.45,1.08l.39,2a1,1,0,0,1-1.23,1.23l-2-.39a1,1,0,0,0-1.08.44l-1.1,1.66a1,1,0,0,1-1.75,0L71.58,54a1,1,0,0,0-1.08-.44l-2,.39a1.05,1.05,0,0,1-1.24-1.23l.4-2a1.06,1.06,0,0,0-.45-1.08L65.6,48.57a1,1,0,0,1,0-1.74l1.66-1.1a1.07,1.07,0,0,0,.45-1.08l-.4-1.95a1.05,1.05,0,0,1,1.24-1.24l2,.4a1.07,1.07,0,0,0,1.08-.45l1.1-1.66A1,1,0,0,1,74.43,39.75Z"/><path class="cls-5" d="M49.76,77.86a10.59,10.59,0,0,1-2.86.33,12,12,0,0,1-3.33-.43,7.79,7.79,0,0,1-2-.84,10.35,10.35,0,0,1-1-.73,4.93,4.93,0,0,1-.83-1,5.49,5.49,0,0,1-.83-2.66,4.47,4.47,0,0,1,.88-3,3.42,3.42,0,0,1,3.3-1.12,3.71,3.71,0,0,1,2.73,2.32,7,7,0,0,1,.25.94,4.61,4.61,0,0,1,0,.8,6.35,6.35,0,0,1-.26,1.74,8.82,8.82,0,0,1-1.54,3,11.14,11.14,0,0,1-5.51,3.72,13.89,13.89,0,0,1-1.66.39,12.13,12.13,0,0,1-1.62.18,11,11,0,0,1-3.37-.38A8.26,8.26,0,0,1,27,77a5.89,5.89,0,0,1-.55-1.66v0l0-.12v-.31l0-.35a6.51,6.51,0,0,1,.12-1,3.66,3.66,0,0,1,2.43-2.71,3.14,3.14,0,0,1,1.94,0,3.26,3.26,0,0,1,1.46,1.08,5.34,5.34,0,0,1,1.05,2.74l0,.33v.64l0,.36a5.65,5.65,0,0,1-.29,1.31,8.37,8.37,0,0,1-1,2,12,12,0,0,1-2.42,2.55,11.35,11.35,0,0,1-1.9,1.24c-.47.24-.75.35-.75.35h0a.9.9,0,0,1-.67-1.68,5.87,5.87,0,0,0,.58-.29,10.12,10.12,0,0,0,1.56-1.1,10.5,10.5,0,0,0,2-2.18,6.17,6.17,0,0,0,.77-1.54,4.06,4.06,0,0,0,.18-.8c0-.07,0-.12,0-.19V75.1c0-.07,0,.08,0,.06l0-.25a3.33,3.33,0,0,0-.64-1.69,1,1,0,0,0-1.18-.42,1.57,1.57,0,0,0-1,1.18c0,.14,0,.25-.06.39l0,.6A3.66,3.66,0,0,0,28.87,76a6.21,6.21,0,0,0,3.9,3,8.66,8.66,0,0,0,2.69.3c.22,0,.42,0,.67,0l.77-.1a12.25,12.25,0,0,0,1.35-.3,9.09,9.09,0,0,0,4.58-3,7.14,7.14,0,0,0,1.25-2.31,4.53,4.53,0,0,0,.21-1.17,3.14,3.14,0,0,0,0-.67s-.08-.32-.13-.46a1.9,1.9,0,0,0-1.38-1.23,1.64,1.64,0,0,0-1.62.51,2.72,2.72,0,0,0-.53,1.82,3.85,3.85,0,0,0,.5,1.91A5.52,5.52,0,0,0,44,76.65a15.89,15.89,0,0,0,3,.89A14.69,14.69,0,0,0,49.76,77.86Z"/><circle class="cls-7" cx="86.79" cy="30.26" r="1.8"/><circle class="cls-7" cx="87.39" cy="75.85" r="1.8"/><circle class="cls-7" cx="85.58" cy="66.35" r="1.2"/><circle class="cls-7" cx="83.18" cy="86.19" r="2.41"/><circle class="cls-7" cx="81.11" cy="24.25" r="1.2"/><circle class="cls-7" cx="83.78" cy="14.02" r="2.41"/></svg>