<svg id="Layer_1" data-name="Layer 1" xmlns="http://www.w3.org/2000/svg" viewBox="0 0 100 100"><defs><style>.cls-1{fill:#a9cced;}.cls-2{fill:#f59d12;}.cls-3{fill:#ee751a;}.cls-4{fill:#e8f3fc;}.cls-5{fill:#f4c3bf;}.cls-6{fill:#fad4d0;}.cls-7{fill:#2956a3;}.cls-8{fill:#243878;}</style></defs><title>icon</title><path class="cls-1" d="M9.26,53.38H67.81L54.19,65.64V91.51a1.36,1.36,0,0,1-1.36,1.36H9.26A1.36,1.36,0,0,1,7.9,91.51V54.74A1.36,1.36,0,0,1,9.26,53.38Z"/><path class="cls-2" d="M93.68,5.72H35.13L48.74,18V43.85a1.36,1.36,0,0,0,1.37,1.36H93.68A1.36,1.36,0,0,0,95,43.85V7.09A1.36,1.36,0,0,0,93.68,5.72Z"/><path class="cls-3" d="M37,30l-5.82-1.53H17.63L11.8,30a5,5,0,0,0-3.75,4.86V45.21H40.73V34.88A5,5,0,0,0,37,30Z"/><path class="cls-4" d="M24.39,34.4s8.3-2,8.86-5.36l-2.09-.55H17.63l-2.1.55C16.12,32.43,24.39,34.4,24.39,34.4Z"/><path class="cls-5" d="M24.39,32.67s6.72-1.45,6.77-4.18a5.23,5.23,0,0,1-2.8-3.66c0-.24-.07-1.72-.1-1.95H20.52c0,.25-.07,1.78-.13,2.06a5,5,0,0,1-2.76,3.54C17.69,31.21,24.39,32.67,24.39,32.67Z"/><path class="cls-6" d="M24.39,9.13c-3.81,0-6.89,3.87-6.89,8.65s3.08,8.64,6.89,8.64,6.9-3.87,6.9-8.64S28.2,9.13,24.39,9.13Z"/><path class="cls-7" d="M17.6,16.54s-1.69-2.16-.62-6.25,4.34-3.45,4.34-3.45a4.89,4.89,0,0,1,3.51-1.12c3,0,5.67.73,6.88,3.66s-.41,7.16-.41,7.16-1-3.71-4.41-4.8c0,0-1.31,1.45-5.26,1.45S17.6,16.54,17.6,16.54Z"/><path class="cls-6" d="M31.67,15.64c-.73-.16-1.7.81-2,1.94s.14,2.17.88,2.33,1.63-.61,1.88-1.74S32.41,15.79,31.67,15.64Z"/><path class="cls-6" d="M17.11,15.64c.73-.16,1.71.81,2,1.94s-.15,2.17-.88,2.33-1.64-.61-1.88-1.74S16.37,15.79,17.11,15.64Z"/><path class="cls-4" d="M15.41,45.21H14.32V38.13A1.09,1.09,0,0,1,15.41,37h0Z"/><path class="cls-4" d="M34.47,45.21H33.38V37h0a1.09,1.09,0,0,1,1.09,1.09Z"/><path class="cls-7" d="M91.29,77.68l-5.82-1.53H71.94l-5.83,1.53a5,5,0,0,0-3.75,4.86V92.87H95V82.54A5,5,0,0,0,91.29,77.68Z"/><path class="cls-4" d="M78.7,82.06s8.3-2,8.86-5.36l-2.09-.55H71.94l-2.1.55C70.43,80.09,78.7,82.06,78.7,82.06Z"/><path class="cls-5" d="M78.7,80.33s6.72-1.45,6.77-4.18a5.23,5.23,0,0,1-2.8-3.66c0-.24-.08-1.72-.1-1.95H74.83c0,.25-.08,1.78-.13,2.06a5,5,0,0,1-2.76,3.54C72,78.87,78.7,80.33,78.7,80.33Z"/><path class="cls-6" d="M78.7,56.79c-3.81,0-6.9,3.87-6.9,8.65s3.09,8.64,6.9,8.64,6.9-3.87,6.9-8.64S82.51,56.79,78.7,56.79Z"/><path class="cls-8" d="M71.91,64.2S70.22,62,71.29,58c1.1-4.24,4.34-3.45,4.34-3.45a4.89,4.89,0,0,1,3.51-1.12c3,0,5.67.73,6.88,3.66s-.41,7.16-.41,7.16-1-3.71-4.41-4.8c0,0-1.31,1.45-5.26,1.45S71.91,64.2,71.91,64.2Z"/><path class="cls-6" d="M86,63.3c-.73-.16-1.71.81-2,1.94s.14,2.17.88,2.33,1.63-.61,1.88-1.74S86.72,63.45,86,63.3Z"/><path class="cls-6" d="M71.42,63.3c.73-.16,1.71.81,2,1.94s-.15,2.17-.88,2.33-1.64-.61-1.88-1.74S70.68,63.45,71.42,63.3Z"/><path class="cls-4" d="M69.71,92.87H68.63V85.79a1.08,1.08,0,0,1,1.08-1.09h0Z"/><path class="cls-4" d="M88.78,92.87H87.69V84.7h0a1.09,1.09,0,0,1,1.09,1.09Z"/><path class="cls-4" d="M80,26.49H55.49a1,1,0,0,1,0-2H80a1,1,0,0,1,0,2Z"/><path class="cls-4" d="M88.17,19.68H71.83a1,1,0,1,1,0-2H88.17a1,1,0,0,1,0,2Z"/><path class="cls-4" d="M66.38,19.68H55.49a1,1,0,0,1,0-2H66.38a1,1,0,0,1,0,2Z"/><path class="cls-4" d="M88.17,12.87H77.28a1,1,0,1,1,0-2H88.17a1,1,0,0,1,0,2Z"/><path class="cls-4" d="M71.83,12.87H55.49a1,1,0,0,1,0-2H71.83a1,1,0,0,1,0,2Z"/><path class="cls-4" d="M88.17,33.3H74.55a1,1,0,0,1,0-2H88.17a1,1,0,0,1,0,2Z"/><path class="cls-4" d="M69.11,33.3H55.49a1,1,0,0,1,0-2H69.11a1,1,0,0,1,0,2Z"/><path class="cls-4" d="M74.55,40.11H55.49a1,1,0,0,1,0-2H74.55a1,1,0,0,1,0,2Z"/><path class="cls-7" d="M47.54,74.15H35.28a1,1,0,1,1,0-2H47.54a1,1,0,1,1,0,2Z"/><path class="cls-7" d="M29.84,74.15h-15a1,1,0,0,1,0-2h15a1,1,0,1,1,0,2Z"/><path class="cls-7" d="M40.73,67.34H29.84a1,1,0,0,1,0-2H40.73a1,1,0,1,1,0,2Z"/><path class="cls-7" d="M24.39,67.34H14.86a1,1,0,0,1,0-2h9.53a1,1,0,0,1,0,2Z"/><path class="cls-7" d="M47.54,60.53H35.28a1,1,0,1,1,0-2H47.54a1,1,0,1,1,0,2Z"/><path class="cls-7" d="M29.84,60.53h-15a1,1,0,0,1,0-2h15a1,1,0,1,1,0,2Z"/><path class="cls-7" d="M47.54,81H29.84a1,1,0,0,1,0-2h17.7a1,1,0,0,1,0,2Z"/><path class="cls-7" d="M24.39,81H14.86a1,1,0,0,1,0-2h9.53a1,1,0,0,1,0,2Z"/><path class="cls-7" d="M36.65,87.77H14.86a1,1,0,0,1,0-2H36.65a1,1,0,0,1,0,2Z"/></svg>